<svg xmlns="http://www.w3.org/2000/svg" width="410" height="404" viewBox="0 0 410 404" fill="none">
  <path d="M399.641 59.5246L215.643 388.545C211.844 395.338 202.198 395.378 198.382 388.618L10.5817 59.5563C6.38087 52.1896 12.6802 43.2665 21.0281 44.7586L205.223 77.6824C206.398 77.8924 207.601 77.8904 208.776 77.6763L389.119 44.8058C397.439 43.2894 403.768 52.1434 399.627 59.5163L399.641 59.5246Z" fill="url(#paint0_linear)"/>
  <path d="M292.965 1.5744L156.801 28.2552C155.563 28.5006 154.541 29.3667 154.125 30.5502L103.419 175.309C102.798 177.079 103.799 179.01 105.618 179.584L139.372 190.225C141.191 190.799 143.109 189.808 143.739 188.038L165.094 127.785C165.724 126.016 167.643 125.026 169.462 125.6L203.216 136.241C205.035 136.815 206.953 135.824 207.583 134.054L238.778 45.9353C239.408 44.1657 241.327 43.1757 243.146 43.75L292.945 59.0906C294.764 59.6649 296.682 58.6749 297.312 56.9053L307.596 27.6333C308.971 23.7184 305.597 19.7628 301.573 20.5486Z" fill="url(#paint1_linear)"/>
  <defs>
    <linearGradient id="paint0_linear" x1="6.00017" y1="32.9999" x2="235" y2="344" gradientUnits="userSpaceOnUse">
      <stop stop-color="#41D1FF"/>
      <stop offset="1" stop-color="#BD34FE"/>
    </linearGradient>
    <linearGradient id="paint1_linear" x1="194.651" y1="8.81818" x2="236.076" y2="292.989" gradientUnits="userSpaceOnUse">
      <stop stop-color="#FFEA83"/>
      <stop offset="0.0833333" stop-color="#FFDD35"/>
      <stop offset="1" stop-color="#FFA800"/>
    </linearGradient>
  </defs>
</svg>

