<?xml version="1.0" encoding="UTF-8"?>
<svg id="Layer_2" data-name="Layer 2" xmlns="http://www.w3.org/2000/svg" viewBox="0 0 1523.38 1505.24">
  <defs>
    <style>
      .cls-1 {
        fill: #774e23;
      }

      .cls-2 {
        fill: #0179b9;
      }

      .cls-3 {
        fill: #fff;
      }

      .cls-4 {
        fill: #221f1f;
      }

      .cls-5 {
        fill: #f6ccc6;
      }

      .cls-6 {
        fill: #eacdad;
      }
    </style>
  </defs>
  <g id="Layer_1-2" data-name="Layer 1">
    <g>
      <path class="cls-2" d="M733.65,1505.24c-366.11,0-663.92-295.2-663.92-658.04S367.54,189.17,733.65,189.17s663.92,295.17,663.92,658.04-297.86,658.04-663.92,658.04Z"/>
      <path class="cls-3" d="M733.65,247.92c-333.7,0-605.18,268.86-605.18,599.28s271.48,599.27,605.18,599.27,605.13-268.88,605.13-599.27S1067.32,247.92,733.65,247.92ZM733.65,1414.7c-314.63,0-569.63-252.71-569.63-564.4S419.02,285.87,733.65,285.87s569.6,252.71,569.6,564.43-255.03,564.4-569.6,564.4Z"/>
      <path class="cls-4" d="M1420.92,326.46c14.9-37.87,11.36-100.36-9.11-137.61-.66-1.3-1.46-2.66-2.37-3.84,35.3,4.45,70.51-11.11,88.27-40.08,18.82-30.78,12.95-68.25-15.72-100.24C1458.25,18.44,1410.51-.77,1370.94.02c-25.63.46-46.27,9.25-59.64,25.27h.03c-.6.71-.81,1.51-.87,1.93-.41,1.91.57,3.89,2.42,4.74,1.27.61,2.71.49,3.89-.13,5.79-.96,52.33,2.52,76.48,25.47,11.29,10.78,15.35,24.25,12.23,40-2.74,20.53-23.54,33.86-42.51,38.07-27.18-22.48-61.82-31.99-92.48-40.35l-2.56-.75c-.57-.95-1.62-1.79-2.83-2.02-77.59-15.88-132.24,8.69-159.78,38.88-4.24-9.66-14.49-26.43-37.4-38.84-23.25-12.57-43.09-15.92-60.51-10.33-17.79,5.75-32.71,21.04-44.38,45.39-10.35,21.6-16.02,42.81-16.93,63.38-.05,1.2.45,2.36,1.27,3.18-.27,17.68,2.37,33.89,7.79,48.04.61,1.35,1.06,2.39,1.57,3.38.04.29,0,.57.09.86,12.65,28.78,36.89,47.18,68.64,52.17.87,14.3,3.59,26.83,8.18,37.26-27.82,31.45-57.6,74.21-48.23,128.05,0,6.3-.16,12.49-.25,18.42-.86,39.17-1.63,72.95,53.17,96.24,35.35,18.9,67.63,2.02,96.03-12.89l6.79-3.59c31.53-17.02,88.25-45.8,105.51-47.93,19.27,10.14,38.67,34.97,42.4,39.85,1,1.23,2.51,1.86,4.08,1.7,11.01-1.32,24.12-13.75,29.24-18.96.17-.19.27-.39.36-.47,14.95-20.8,15.12-45.32,13.28-63.1,12.67,9.27,32.76,16.58,57.09,15.76,20.94-.77,60.81-8.8,92.11-54.28,23.65-30.33,28.19-62.42,12.07-85.47-14.77-21.18-44.15-29.56-76.37-22.49M1317.79,31.01h.08-.08Z"/>
      <path class="cls-1" d="M1437.91,134.09c-15.45,11.52-43.71,22.35-64.74,17.09,93.26-48.16,37.22-124.23-37.34-130.83,42.92-27.53,173.87,59.69,102.07,113.74"/>
      <path class="cls-1" d="M1496,99.56c8.8,57.89-64.06,91.37-102.84,64.51,60.27-14.3,76.09-52.68,75.03-70.13-2.08-33.1-32.02-58.22-71.09-77.76,26.08,7.01,83.8,22.7,98.9,83.39"/>
      <path class="cls-6" d="M1095.7,150.46c-8.08,15.72-17.58,38.34-22.22,55.83,0-33.48-25.65-76.73-55.57-92.43-3.89-1.37-6.03,1.42-8.18,3.47,10.94,7.35,35.93,23.44,45.84,63.88-8.46-5.65-19.01-2.13-26.02,5.9-10.55,13.95-7.78,38.74,3.89,56.48,2.72,2.83,5.61,4.24,9.42,3.81l1.45-.98c-10.58-13.65-18.3-38.31-4.24-54.41,2.44-2.43,14.76-7.32,21.19,6.58,2.77,17.49,6.66,34.51,6.35,43.67-17.3,6.58-35.24,23.31-38.06,43.59-20.07-3.53-39.49-11.52-53.22-35.59-25.36-43.31-1.72-117.93,21.85-145.78,13.35-13.66,35.25-9.42,52.88-3.83,23.93,7.95,35.14,23.69,44.63,49.81"/>
      <path class="cls-6" d="M1292.51,216.07c-3.49,4.16,1.07,11.11,13.76-2.79,15.16-16.79,39.42-37,57.67-29.64,67.63,39.39,22.54,198.11-47.49,216.25,2.08-5.87,8.08-17.39,16.58-23.69-45.83,26.48-14.11,65.21-9.9,100.79,4.94,41.5-27.79,64.88-27.45,60.32-20.77-35.55-59.49-52.28-100.39-62.38-41.88-10.51-85.14-13.61-100.56-32.15-20.12-18.82-40.56-133.26,10.47-140.9,4.24,4.16,9.19,12.55,11.29,25.12,10.52-15.36-15.86-64.19-44.38-48.18,4.69,2.82,15.51.72,22.61,13.65-25.43,7.36-34.6,38.34-32.11,67.63,3.58,58.94-64.1,103.94-22.51,164.36,42.22,44.99,98.23-3.88,144.67-18.16,18.31-4.54,33.45-10.83,51.8-3.15-52.51,16.39-98.23,51.25-153.93,69.78-31.61.66-61.21-16.79-75.63-44.7-6.32-10.75-9.19-39.03,3.85-80.48,1.02-3.84,1.4-4.96-1.74-6.99-8.08-.75-8.43,7.62-10.93,16.65,2.51-56.15,17.64-79.13,40.48-104.95,17.6-21.64,22.23-25.45,22.61-35.55-3.24-9.09-14.51,10.43-14.87,11.19-2.13-17.83-7.33-38.46.36-54.81,12.32-23.71,30.04-29.33,57.01-20.57,20.08,6.31,29.61,38.67,38.41,48.11,11.99-4.85,4.62-9.77,1.78-18.5-17.25-32.06-16.54-81.27,2.13-119.65,15.43-31.7,52.44-50.95,89.06-52.98,66.54,7.64,67.22,60.65,57.37,106.38"/>
      <path class="cls-4" d="M1232.65,330.81c11.27,2.46,25.7,9.76,34.17,17.44,32.06-15.28,44.02-140.9,84.46-111.98,31.71,36.31-10.95,121.8-49.59,141.28-3.88,2.17,0,8.39-3.52,9.47-37.67-47.06-117.58-73.64-155-61.46,4.26-10.83,22.94-12.54,27.87-12.54.74-.61-19.72-59.59,53.5-128.01,50.36-35.23,60.93,10.82,48.27,63.83-7.42,29.98-24.28,65.28-40.17,81.98"/>
      <path class="cls-3" d="M1223.5,326.27c-7.43-1.37-9.5-2.07-18.64-4.2,22.2-21.93,28.91-47.42,21.83-56.83-19.4-21.29-50.67,16.75-47.15,25.8-6.05-26.47,35.5-102.88,74.22-109.51,40.51,3.12-.69,117.92-30.27,144.74"/>
      <path class="cls-3" d="M1354.46,264.19c2.47,30.69-19.29,79.53-58.43,110.92-1.06-2.72-6.72-7.68-8.84-9.74,11.68,5.25,44.05-27.59,38.77-52.67-1.08-8.7-13.72-10.83-23.61-4.18,11.32-27.23,38.79-107.09,52.11-44.34"/>
      <path class="cls-4" d="M1196.05,318.64c-27.81-4.53-9.89-47.83,19.7-51.96,14.81-.76,3.89,37.61-19.7,51.96"/>
      <path class="cls-4" d="M1312.53,314.72c17.61,3.54-4.14,41.92-25.56,46.09-3.62-2.07-8.55-4.85-10.97-7.64,16.5-15.38,20.42-43.29,36.52-38.44"/>
      <path class="cls-6" d="M1487.9,403.71c-14.36,33.5-28.92,41.5-64.01,58.63-47.21,13.94-77.52,3.1-97.92-21.3-4.95-7.27-8.85-13.6-7.06-27.25,5.97,9.09,8.8,10.53,16.27,18.13,15.79,8.44,32.35,7.39,46.77.45,18.61-11.52,24.31-37.7,16.19-54.81,28.53-6.92,52.16-11.48,77.44-2.75,1.76-1.05,3.49-2.79,2.82-4.92-27.13-18.46-48.92-7.6-82.75-2.79l11.59-19.55c43.06-32.11,101.77,14.37,80.65,56.18"/>
      <path class="cls-4" d="M1277.37,371.25c8.8,10.5,18.72,51.33-29.92,54.84-23.21.34-29.93-19.92-39.42-2.47-6.68,9.39-15.86,9.39-8.48-1.73,2.12-5.24,4.56-8.39,5.3-12.57-17.94-9.09-54.2-37.72-34.14-64.51,27.81-24.43,78.77.29,106.66,26.44"/>
      <path class="cls-5" d="M1272.81,396.43c-3.22,23-32.11,16.04-46.49,12.5,3.54-6.26,23.91-1.38,31.35-13.26-8.79-8.04-31.35,1.46-40.51,5.26.75-12.89,2.82-44.96-8.73-40.11-2.87,13.61.67,30.01-1.13,36.96-15.52-3.76-27.11-16.69-32.35-32.4-1.02-37.72,101.05-14.34,97.86,31.05"/>
      <path class="cls-6" d="M1375.93,420.83c-11.99,5.58-32.01,12.57-42.91-9.77,11.97-9.09,39.38-18.54,51.33-31.79,15.53,8.76,1.48,38.08-8.43,41.56"/>
      <path class="cls-1" d="M1120.7,466.86c28.15,8.71,64.82,10.82,91.54,22-24.67,6.94-50.72,11.44-72.88,25.06-4.92-33.78-36.95-50.18-52.49-55.47-6.33-26.83-17.96-34.13-30.24-37.9,5.98-10.53,7.41-17.53,10.25-28.36,3.84,34.87,22.81,69.82,53.83,74.67"/>
      <path class="cls-5" d="M1073.15,496.9c-5.22,9.71,0,11.83,2.84,7.67,5.67-11.51,10.91-22.36,10.57-36.68,38.73,10.47,43.97,43.59,46.09,48.89-22.5,10.38-54.87,24.36-79.21,7.67-25.65-25.82-14.04-67.38,0-97.02,28.85,14.3,26.45,42.57,19.71,69.47"/>
      <path class="cls-1" d="M1249.18,106.51c-46.1-8.65-86.2,17.14-109.81,50.95-19.06,37-17.27,76.1-16.54,94.84-5.26-7.26-31.02-19.21-45.41-11.85,3.13-43.57,21.79-95.88,73.55-125.16,35.2-15.74,61.99-19.22,100.34-13.99,36.34,5.58,89.45,28.96,116.94,54.43,71.45,63.49,69.37,177.86-14.15,229.21,71.55-66.01,60.96-210.04,4.25-209.66-14.75,0-31.39,4.49-52.82,26.47-.7-15.64,9.12-80.88-56.35-95.23"/>
      <g>
        <path class="cls-3" d="M390.73,1131.95c9.86,0,21.59,2.83,21.59,11.33,0,3.79-2.77,7.49-7.03,7.49-3.81,0-7.83-3.25-14.11-3.25-13.24,0-18.43,10.46-18.43,21.47s5.86,20.93,16.95,20.93c10.19,0,11.77-3.3,15.99-3.3,6.42,0,7.22,5.35,7.22,7.47,0,8.84-13.49,11.9-22.51,11.9-22.45,0-35.15-16.73-35.15-37,0-21.47,13.96-37.04,35.48-37.04"/>
        <path class="cls-3" d="M434.21,1191.86c0,4.75-2.84,7.13-6.78,7.13s-6.81-2.38-6.81-7.13v-45.83c0-4.67,2.88-7.07,6.81-7.07s6.78,2.39,6.78,7.07v15.96h25.24v-15.96c0-4.67,2.83-7.07,6.77-7.07s6.76,2.39,6.76,7.07v45.83c0,4.75-2.78,7.13-6.76,7.13s-6.77-2.38-6.77-7.13v-17.45h-25.24v17.45Z"/>
        <path class="cls-3" d="M493.11,1191.86c0,4.75-2.83,7.13-6.77,7.13s-6.83-2.38-6.83-7.13v-45.83c0-4.67,2.89-7.07,6.83-7.07s6.77,2.39,6.77,7.07v45.83Z"/>
        <path class="cls-3" d="M499.63,1146.04c0-4.67,2.82-7.07,6.78-7.07s6.78,2.39,6.78,7.07v40.04h14.58c4.24,0,6.81,2.28,6.81,6.26,0,3.66-2.57,6.16-6.81,6.16h-21.37c-3.52,0-6.78-2.36-6.78-6.71v-45.75Z"/>
        <path class="cls-3" d="M550.34,1151.92h7.82c9.89,0,14.88,6.67,14.88,16.65s-4.95,17.5-15.47,17.5h-7.23v-34.16ZM536.81,1191.76c0,4.37,3.28,6.73,6.77,6.73h16.21c14.73,0,27.82-10.62,27.82-29.92,0-15.16-10.11-29.13-27.82-29.13h-16.21c-3.49,0-6.77,2.46-6.77,6.73v45.59Z"/>
        <path class="cls-3" d="M606.17,1151.92h8.96c3.83,0,6.96,2.39,6.96,6.31s-2.52,6.67-6.96,6.67h-8.96v-12.98ZM592.62,1191.86c0,4.75,2.87,7.13,6.78,7.13s6.77-2.38,6.77-7.13v-16.98h.21l16.62,20.79c1.68,2.06,2.95,3.32,6.47,3.32,5.22,0,6.98-4.34,6.98-6.18,0-2.28-1.07-3.84-2.87-5.87l-11.78-12.6c8.51-1.52,13.88-7.84,13.88-16.58,0-11.03-7.9-18.31-19.92-18.31h-16.35c-3.5,0-6.78,2.46-6.78,6.73v45.69Z"/>
        <path class="cls-3" d="M640.67,1146.17c0-4.28,3.27-6.73,6.78-6.73h20.81c4.25,0,6.74,2.49,6.74,6.22,0,3.92-2.49,6.26-6.74,6.26h-14.07v10.62h12.84c4.24,0,6.86,2.46,6.86,6.22s-2.62,6.31-6.86,6.31h-12.84v11.01h14.55c4.3,0,6.75,2.28,6.75,6.26,0,3.66-2.44,6.16-6.75,6.16h-21.28c-3.52,0-6.78-2.36-6.78-6.73v-45.59Z"/>
        <path class="cls-3" d="M679.45,1146.04c0-4.67,2.83-7.07,6.74-7.07,3.62,0,4.84,1.6,9.35,7.21l22.61,27.87h.13v-28.01c0-4.67,2.82-7.07,6.78-7.07s6.78,2.39,6.78,7.07v45.83c0,4.75-2.88,7.13-6.78,7.13-3.66,0-4.96-1.58-9.4-7.21l-22.53-27.97h-.16v28.05c0,4.75-2.87,7.13-6.78,7.13s-6.74-2.38-6.74-7.13v-45.83Z"/>
        <path class="cls-3" d="M747.43,1160.76c-1.11,2.07-2.91,3.85-5.87,3.85-3.71,0-6.37-2.29-6.37-5.68,0-1.71.77-3.05,1.26-3.95l6.84-12.17c1.17-2.09,2.9-3.84,5.97-3.84,3.68,0,6.32,2.24,6.32,5.65,0,1.71-.74,3.04-1.27,3.95l-6.88,12.19Z"/>
        <path class="cls-3" d="M763.6,1182.96c3.27,0,7.66,3.35,14.59,3.35,5.26,0,7.24-2.56,7.24-5.52,0-4.46-5.22-5.36-12.93-7.83-7.03-2.21-14.29-5.21-14.29-15.92,0-12.89,10.07-18.87,21.42-18.87s16.87,3.73,16.87,8.84c0,3.65-2.44,6.33-6,6.33-4.41,0-5.77-2.23-11.57-2.23-3.69,0-6.16,1.88-6.16,4.76,0,3.38,3.37,3.76,12.73,6.92,7.32,2.36,14.41,6.16,14.41,17.3,0,13.59-10.02,19.73-22.78,19.73-7.92,0-19.97-3.03-19.97-9.7,0-3.66,2.23-7.17,6.43-7.17"/>
        <path class="cls-3" d="M824.76,1141.57c0-5.17,3.99-8.06,8.18-8.06h24.94c5.07,0,8.04,2.97,8.04,7.45s-2.97,7.49-8.04,7.49h-16.84v12.64h14.72c5.04,0,8.14,2.82,8.14,7.43s-3.1,7.48-8.14,7.48h-14.72v20.42c0,5.65-3.42,8.58-8.1,8.58s-8.18-2.93-8.18-8.58v-54.85Z"/>
        <path class="cls-3" d="M885.25,1191.86c0,4.75-2.87,7.13-6.82,7.13s-6.81-2.38-6.81-7.13v-45.83c0-4.67,2.88-7.07,6.81-7.07s6.82,2.39,6.82,7.07v45.83Z"/>
        <path class="cls-3" d="M904.27,1151.92h-7.59c-4.53,0-7.09-2.52-7.09-6.26s2.57-6.22,7.09-6.22h28.81c4.49,0,6.97,2.32,6.97,6.22s-2.48,6.26-6.97,6.26h-7.63v39.94c0,4.75-2.89,7.13-6.83,7.13s-6.76-2.38-6.76-7.13v-39.94Z"/>
        <path class="cls-3" d="M933.75,1146.04c0-4.67,2.82-7.07,6.79-7.07,3.62,0,4.85,1.6,9.35,7.21l22.54,27.87h.14v-28.01c0-4.67,2.85-7.07,6.77-7.07s6.81,2.39,6.81,7.07v45.83c0,4.75-2.84,7.13-6.81,7.13-3.58,0-4.97-1.58-9.37-7.21l-22.53-27.97h-.11v28.05c0,4.75-2.89,7.13-6.78,7.13s-6.79-2.38-6.79-7.13v-45.83Z"/>
        <path class="cls-3" d="M992.65,1146.17c0-4.28,3.3-6.73,6.82-6.73h20.67c4.3,0,6.84,2.49,6.84,6.22,0,3.92-2.54,6.26-6.84,6.26h-13.85v10.62h12.75c4.25,0,6.81,2.46,6.81,6.22s-2.56,6.31-6.81,6.31h-12.75v11.01h14.36c4.36,0,6.83,2.28,6.83,6.26,0,3.66-2.47,6.16-6.83,6.16h-21.18c-3.52,0-6.82-2.36-6.82-6.73v-45.59Z"/>
        <path class="cls-3" d="M1034.94,1182.96c3.35,0,7.65,3.35,14.68,3.35,5.21,0,7.14-2.56,7.14-5.52,0-4.46-5.15-5.36-12.88-7.83-7.02-2.21-14.29-5.21-14.29-15.92,0-12.89,10.1-18.87,21.42-18.87s16.95,3.73,16.95,8.84c0,3.65-2.49,6.33-6.03,6.33-4.36,0-5.87-2.23-11.59-2.23-3.71,0-6.21,1.88-6.21,4.76,0,3.38,3.37,3.76,12.73,6.92,7.37,2.36,14.45,6.16,14.45,17.3,0,13.59-10.05,19.73-22.69,19.73-7.99,0-19.97-3.03-19.97-9.7,0-3.66,2.17-7.17,6.28-7.17"/>
        <path class="cls-3" d="M1079.89,1182.96c3.32,0,7.7,3.35,14.64,3.35,5.3,0,7.23-2.56,7.23-5.52,0-4.46-5.3-5.36-12.93-7.83-6.99-2.21-14.25-5.21-14.25-15.92,0-12.89,10.1-18.87,21.34-18.87s16.97,3.73,16.97,8.84c0,3.65-2.44,6.33-6.03,6.33-4.34,0-5.77-2.23-11.57-2.23-3.65,0-6.17,1.88-6.17,4.76,0,3.38,3.37,3.76,12.73,6.92,7.32,2.36,14.47,6.16,14.47,17.3,0,13.59-10.1,19.73-22.79,19.73-7.95,0-20.05-3.03-20.05-9.7,0-3.66,2.29-7.17,6.41-7.17"/>
        <path class="cls-3" d="M610.82,1214.92c9.84,0,21.64,2.78,21.64,11.23,0,3.86-2.83,7.68-7.06,7.68-3.84,0-7.8-3.42-14.16-3.42-13.15,0-18.4,10.57-18.4,21.54s5.91,20.83,17,20.83c10.1,0,11.72-3.27,15.93-3.27,6.51,0,7.23,5.35,7.23,7.5,0,8.83-13.51,11.87-22.49,11.87-22.51,0-35.13-16.7-35.13-36.94,0-21.54,13.99-37.04,35.43-37.04"/>
        <path class="cls-3" d="M640.77,1229.08c0-4.31,3.27-6.77,6.77-6.77h20.73c4.29,0,6.82,2.61,6.82,6.3,0,3.91-2.53,6.26-6.82,6.26h-13.96v10.65h12.79c4.25,0,6.78,2.36,6.78,6.27s-2.53,6.18-6.78,6.18h-12.79v11.01h14.49c4.26,0,6.81,2.28,6.81,6.27,0,3.73-2.54,6.18-6.81,6.18h-21.25c-3.5,0-6.77-2.38-6.77-6.69v-45.65Z"/>
        <path class="cls-3" d="M679.46,1229.05c0-4.78,2.89-7.17,6.86-7.17,3.59,0,4.82,1.63,9.37,7.21l22.46,28.02h.2v-28.06c0-4.78,2.79-7.17,6.81-7.17s6.76,2.39,6.76,7.17v45.69c0,4.79-2.89,7.2-6.76,7.2s-5.01-1.56-9.42-7.2l-22.5-27.95h-.22v27.95c0,4.79-2.81,7.2-6.69,7.2s-6.86-2.42-6.86-7.2v-45.69Z"/>
        <path class="cls-3" d="M747.77,1234.87h-7.58c-4.51,0-7.03-2.57-7.03-6.26,0-3.9,2.52-6.3,7.03-6.3h28.75c4.54,0,7.01,2.39,7.01,6.3,0,3.69-2.47,6.26-7.01,6.26h-7.55v39.87c0,4.79-2.87,7.2-6.78,7.2s-6.83-2.42-6.83-7.2v-39.87Z"/>
        <path class="cls-3" d="M777.28,1229.08c0-4.31,3.23-6.77,6.75-6.77h20.79c4.23,0,6.73,2.61,6.73,6.3,0,3.91-2.51,6.26-6.73,6.26h-14.01v10.65h12.81c4.28,0,6.76,2.36,6.76,6.27s-2.48,6.18-6.76,6.18h-12.81v11.01h14.46c4.31,0,6.86,2.28,6.86,6.27,0,3.73-2.54,6.18-6.86,6.18h-21.24c-3.52,0-6.75-2.38-6.75-6.69v-45.65Z"/>
        <path class="cls-3" d="M829.55,1234.87h8.98c3.86,0,7.01,2.39,7.01,6.31s-2.62,6.69-7.01,6.69h-8.98v-13ZM816.02,1274.73c0,4.79,2.83,7.2,6.77,7.2s6.76-2.42,6.76-7.2v-16.94h.16l16.67,20.78c1.67,2.09,2.96,3.36,6.42,3.36,5.26,0,7.03-4.3,7.03-6.18,0-2.26-1.01-3.92-2.93-5.87l-11.77-12.6c8.55-1.56,13.84-7.87,13.84-16.58,0-11.01-7.85-18.39-19.87-18.39h-16.3c-3.53,0-6.77,2.46-6.77,6.77v45.65Z"/>
        <path class="cls-3" d="M871.56,1237.34c0-7.68,5.26-12.91,11.97-12.91s12,5.23,12,12.91-5.4,13.06-12,13.06-11.97-5.27-11.97-13.06M866.22,1237.34c0,10.93,8.33,17.15,17.3,17.15s17.28-6.22,17.28-17.15-8.35-17.05-17.28-17.05-17.3,6.2-17.3,17.05M876.67,1244.22c0,1.33.95,2.06,2.08,2.06s2.08-.72,2.08-2.06v-5.4h1.35l4.26,5.97c.87,1.05,1.4,1.48,2.37,1.48,1.48,0,1.97-1.09,1.97-1.48,0-.65-.2-1.02-.57-1.6l-3.27-4.38c2.17-.11,4.31-1.78,4.31-5.17,0-4.2-2.49-5.51-6.73-5.51h-5.77c-1.13,0-2.08.72-2.08,2.13v13.95ZM880.83,1231.48h3.45c1.41,0,2.47.36,2.47,2.06s-1.06,2.03-2.47,2.03h-3.45v-4.09Z"/>
      </g>
      <g>
        <path class="cls-3" d="M625.25,903.29c22.1,0,33.87,12.49,33.87,38.67,0,74.76-49.73,132.6-127.85,132.6-88.41,0-138.15-65.7-138.15-145.49,0-84.43,58.81-145.51,138.15-145.51,52.89,0,108.93,21.95,108.93,61.08,0,15.64-11.05,26.54-28.77,26.54-23.32,0-34.38-28.93-77.39-28.93s-72.29,38.38-72.29,86.83c0,43.04,21.35,86.91,71.14,86.91,33.48,0,56.82-21.5,59.96-54.02h-36.74c-20.08,0-31.98-11.77-31.98-29.32s11.89-29.36,31.98-29.36h69.14Z"/>
        <path class="cls-3" d="M831.99,784.54c-19.51,0-35.39,13.39-35.39,29.91,0,1.01.11,2.09.29,3.1v38.6c0,25.36-9.52,38.25-30.67,38.25s-30.72-12.89-30.72-38.25v-41.7h-.03c0-16.52-15.81-29.91-35.27-29.91s-35.32,13.39-35.32,29.91h0v80.58c0,35.37,27.84,64.09,63.15,65.97v71.5c0,25.38,15.16,38.3,36.28,38.3s36.29-12.91,36.29-38.3v-71.35c36.81-.15,66.48-29.72,66.48-66.12v-77.99c.14-.86.2-1.77.2-2.59,0-16.52-15.79-29.91-35.3-29.91"/>
        <path class="cls-3" d="M831.99,466.71c-19.51,0-35.39,13.36-35.39,29.83,0,1.12.11,2.17.29,3.22v38.57c0,25.33-9.52,38.22-30.67,38.22s-30.72-12.89-30.72-38.22v-41.64h-.03v-.15c0-16.47-15.81-29.83-35.27-29.83s-35.32,13.36-35.32,29.83v80.65c0,35.38,27.84,64.15,63.15,65.97v71.53c0,25.36,15.16,38.27,36.28,38.27s36.29-12.91,36.29-38.27v-71.38c36.81-.15,66.48-29.69,66.48-66.12v-77.97c.14-.83.2-1.73.2-2.68,0-16.47-15.79-29.83-35.3-29.83"/>
        <path class="cls-3" d="M1228.37,1020.88v-144.61c0-50.35-41.17-91.15-91.97-91.15h-14.72c-25.14,0-47.92,9.98-64.47,26.2-16.58-16.22-39.35-26.2-64.47-26.2h-14.82c-50.77,0-91.94,40.8-91.94,91.15v169.3h.13c0,14.62,16.29,26.57,36.3,26.57s36.4-11.94,36.4-26.57v-26.12c0-.51-.04-1.03-.1-1.51v-137.47c0-15.89,13.51-28.71,30.24-28.71s30.15,12.81,30.15,28.71v28.12c0,.74,0,1.42-.05,2.07v135.08c.24,14.6,16.99,26.39,37.58,26.39s37.51-11.94,37.51-26.57h.09v-165.1c0-15.89,13.61-28.71,30.27-28.71s30.19,12.81,30.19,28.71v28.12c0,.74-.15,1.42-.15,2.07v138.88c0,14.73,16.54,26.65,37.02,26.65s36.97-11.92,36.97-26.65v-26.04c0-.93,0-1.73-.16-2.63"/>
        <path class="cls-3" d="M641.1,698.15v-144.67c0-50.32-41.19-91.05-91.89-91.05h-14.86c-25.09,0-47.86,10.02-64.42,26.25-16.6-16.23-39.35-26.25-64.5-26.25h-14.77c-50.8,0-91.91,40.73-91.91,91.05v169.3h.08c0,14.72,16.22,26.57,36.31,26.57s36.39-11.84,36.39-26.57v-26.04c0-.54-.09-.97-.11-1.52v-122.8h.03v-14.66c0-15.79,13.51-28.67,30.2-28.67s30.18,12.88,30.18,28.67v28.16c0,.7-.05,1.38-.09,2.06v135.04h.03c.22,14.67,16.89,26.33,37.52,26.33s37.62-11.84,37.62-26.57h.07v-165.02c0-15.79,13.58-28.67,30.22-28.67s30.24,12.88,30.24,28.67v28.16c0,.7-.08,1.38-.13,2.06v112.39c0,.14-.05.29-.05.46v26.04c0,14.73,16.54,26.57,37,26.57s37-11.83,37-26.57v-26.04c0-.91-.08-1.81-.16-2.68"/>
      </g>
      <path class="cls-4" d="M160.98,217.77c-69.26,0-152.57,60.75-160.36,142.07-3.54,36.7,8.24,73.14,31.53,97.35,20.91,21.71,49.43,32.21,82.04,30.3,36.11-2,63.13-14.05,80.36-35.66,22.29-28.06,19.36-62.55,17.05-75.88-5.61-33.78-38.27-71.37-76.17-71.37-16.03,0-29.12,13.04-29.12,29.12s13.03,29.13,29.12,29.13c4.64.22,16.95,11.95,18.75,22.81.76,4.49,2.68,20-5.21,29.91-8.05,10.1-25.18,13.1-38.1,13.86-15.76.93-27.72-3.22-36.73-12.63-11.32-11.77-17.43-31.85-15.52-51.37,4.62-48.12,60.1-89.36,102.36-89.36,36.3,0,105.16,21.1,105.97,101.3.74,73.24-75.13,103.33-107.82,112.84-63.44,18.54-149.48,100.19-132.79,216.55,8.6,60.02,29.17,112.55,43.46,143.58,0-1.01-.08-2.09-.08-3.12,0-48.41,5.42-95.54,15.51-140.94-.39-2.64-.87-5.17-1.25-7.78-11.32-78.67,45.88-139.03,91.47-152.38,94.58-27.59,150.59-90.95,149.77-169.3-1.2-116.68-98.86-159.04-164.25-159.04Z"/>
      <path class="cls-1" d="M160.98,228.34c-63.38,0-142.65,57.89-149.79,132.51-3.23,33.2,7.7,67.29,28.6,88.98,18.71,19.43,44.07,28.83,73.82,27.15,32.91-1.91,57.34-12.57,72.64-31.78,19.66-24.66,16.97-55.51,14.95-67.52-4.94-29.54-33.15-62.53-65.77-62.53-10.25,0-18.52,8.28-18.52,18.54s8.28,18.54,18.52,18.54c10.97,0,26.78,17.08,29.17,31.56,1.22,7.2,2.94,25.38-7.36,38.37-8.38,10.58-23.79,16.55-45.77,17.83-18.75.93-33.83-4.24-44.96-15.86-13.34-13.91-20.58-37.37-18.44-59.74,5.23-54.82,66.09-98.98,112.92-98.98,39.94,0,115.66,23.39,116.58,111.82.82,80.49-80.46,112.92-115.45,123.13-59.9,17.54-141.1,94.68-125.29,204.85,6.71,46.74,20.79,88.77,33.28,119.32,1.11-30.99,4.41-61.36,9.72-91.2-2.47-10.78-4.67-21.94-6.31-33.33-12.15-84.61,49.66-149.63,98.97-164.05,89.79-26.2,142.92-85.65,142.11-159.04-1.11-108.96-92.46-148.58-153.62-148.58Z"/>
      <g>
        <path class="cls-4" d="M698.36,224.97l-.65-1.66c-5.46-13.44-11.65-28.63-17.65-39.72-5.49-9.7-10.25-15.06-15.13-17.05-17.55-6.29-44.98-2.53-82.92,2.7-12.52,1.68-26.69,3.66-41.61,5.3-15.51,1.81-32.49,2.51-50.47,3.33-32.7,1.41-69.75,3-104.3,11.44-.2.11-.37.14-.52.21-10.8,4.56-19.3,20.78-22.01,42.32-4.01,24.22-9.06,50.4-15.46,80.63,25.11-17.85,51.47-34.07,79.06-48.29l-.97-11.89c21.53,12.39,42.93,17.6,62.03,22.16,1.7.44,3.39.8,5.04,1.27-3.62,3.15-4.81,6.96-5.07,10.11-1.18,14.55,16.67,32.24,21.75,34.78,4.99,2.97,10.27,6.67,15.86,10.47,27.42,18.86,61.53,42.25,104.54,6.98,4.85-1.01,9.36-1.74,13.64-2.46l5.93-1.1c16.77-2.97,30.72-7.09,31.05-25.48,13.87-2.87,22.23-9.67,26.91-15.06,11.67-14.2,2.4-40.74-9.03-69.01Z"/>
        <path class="cls-6" d="M572.65,262.37c2.47,15.28,1.36,34.79-3.99,46.6-19.97-6.66-40.22-16.18-57.74-28.6l2.54-2.43c17.99,3.44,37.56,12.05,53.69,1.05-18.46-13.35-124.2-13.24-141.67-44.89,48.02.57,102.07,22.6,147.17,28.27"/>
        <path class="cls-1" d="M661.86,179.11c-6.83-8.55-44.85-.51-105.06,6.33-60.15,6.67-149.15,2.93-163.4,16.94-13.54,11.37-22.03,49.78-24.03,70.89-1.25,7.89-3.09,17.37-5.39,27.91,16.31-10.83,33.12-20.97,50.44-30.41-1.27-15.01-2.17-25.74-2.66-30.34.12-6.41,4.5-13.23,10.03-16.09,54.38,3.19,109.48,23.19,156.03,29.31,11.91,7.92,7.22,64.29-4.16,66.53-25.68-5.29-47.57-22.36-70.15-32.32-4,6.88,5.04,18.6,7.84,19.34,40.51,26.24,64.39,45.84,97.28,26.39,8.86-3.99,12.93-14.41,13.3-23.27l-15.96-66.54c-.75-8.65.87-28.14,9.65-33.12l1.12,3.25c-6.26,37.4,20.54,74.57,14.59,112.22,12.59-.46,33.73-4.66,36.91-15.1-5.62-40.71-16.39-52.71-23.47-84.42-.25-7.45,2.87-23.96,9.52-27.25,3.22,6.91-.26,18.38-.12,26.2,7.82,28.31,14.66,42.46,20.39,71.49,5.71,0,16.01-3.39,20.82-6.47,25.62-16.44-21.74-81.31-33.53-111.47Z"/>
      </g>
      <g>
        <path class="cls-4" d="M1449.19,874.87c2.56-37.91,4.3-65.31-3.2-82.01-2.42-4.8-8.25-9.14-18.2-13.75-11.79-5.21-27.55-10.21-41.44-14.62l-1.74-.55c-29.27-9.2-56.64-16.47-69.97-3.9-5.14,5-11.43,13.8-13.3,27.69-18.52,1.71-21.59,15.76-23.41,32.59l-.57,6.05c-.47,4.28-.95,8.66-1.52,13.61-32.35,45.01-6.37,76.96,14.56,102.71,4.26,5.22,8.35,10.21,11.82,15.17,2.82,4.56,21.99,20.93,36.52,18.71,3.14-.46,6.81-1.88,9.85-5.78.5,1.67,1.05,3.23,1.57,4.92,5.96,18.5,12.81,39.32,26.85,59.67l-7.37-.05c-7.88,26.18-17.45,51.56-28.46,76.25,22.14-6.19,42.18-11.41,61.1-15.86,21.43-4.24,37.07-13.76,40.84-24.73.14-.22.14-.42.14-.57,6.02-34.72,4.96-71.5,3.99-103.9-.5-17.81-.93-34.62-.36-50.11.54-14.92,1.53-29.11,2.32-41.52Z"/>
        <path class="cls-6" d="M1356.11,890.86c-15.43-1.3-35.18,1.27-46.52,7.32,8.13,19.26,19.17,38.56,32.91,55.04l2.29-2.73c-4.66-17.47-14.83-36.19-5.01-52.99,14.83,17.38,22.41,121.79,55.56,136.79-4.08-47.43-30.13-99.24-39.23-143.42"/>
        <path class="cls-1" d="M1434.77,900.93c2.46-60.04,7.78-98.11-1.26-104.23-31.24-9.5-99.91-51.52-114.6-25.06-2.8,5.04-5.49,15.36-5.06,21.03,29.59,3.59,44.43,9.35,73.5,14.92,7.84-.36,19.12-4.71,26.37-1.96-2.86,6.73-19.29,11.08-26.81,11.39-32.44-4.8-45.21-14.47-86.71-17.04-10.25,3.95-12.9,25.05-12.47,37.57,37.54-8.61,76.86,15.11,114.01,6.2l3.38.87c-4.34,9.13-23.86,12.09-32.71,11.94l-68.08-10.93c-8.88,1.06-19.1,5.87-22.49,14.88-17.08,33.96,4.24,56.11,33.68,94.28.92,2.63,13.39,10.67,20.04,6.22-11.71-21.57-30.47-41.94-37.58-66.9,1.37-11.37,57.73-20.13,66.6-8.98,9.59,45.58,33.58,98.47,40.89,152.05-2.54,5.73-9.08,10.55-15.47,11.12-4.05-.17-12.63-.25-24.52-.36-5.23,16.11-11.02,32.01-17.4,47.57,4.24-1.16,8.28-2.14,11.9-2.99,21.03-3.41,59.17-14.78,69.62-28.87,13.06-15.06,2.79-102.78,5.16-162.73Z"/>
      </g>
    </g>
  </g>
</svg>